<?xml version="1.0" encoding="utf-8"?>
<!-- Generator: Moho 14.1 build 20231027 -->
<!DOCTYPE svg PUBLIC "-//W3C//DTD SVG 1.1//EN" "http://www.w3.org/Graphics/SVG/1.1/DTD/svg11.dtd">
<svg version="1.1" id="Frame_7" xmlns="http://www.w3.org/2000/svg" xmlns:xlink="http://www.w3.org/1999/xlink" width="1280px" height="720px">
<g id="Layer_3">
<path id="S1" fill="#f1e972" fill-rule="evenodd" stroke="none" d="M 666.902 82.655 C 666.899 82.673 571.314 215.495 571.314 215.495 C 571.319 215.494 628.245 207.763 628.245 207.763 C 628.241 207.767 600.316 235.364 587.068 248.455 C 576.568 258.831 568.502 266.802 568.502 266.802 C 568.507 266.801 622.622 256.260 622.622 256.260 C 622.618 256.264 595.452 277.842 580.181 289.972 C 551.435 312.806 523.520 334.980 523.520 334.980 C 523.528 334.978 609.268 320.220 609.268 320.220 C 609.264 320.225 582.510 352.819 568.594 370.382 C 486.542 473.938 375.920 621.042 375.920 621.042 C 375.960 621.008 774.439 282.265 774.439 282.265 C 774.433 282.266 736.705 283.655 716.809 284.387 C 686.462 285.504 659.874 286.483 659.874 286.483 C 659.879 286.477 713.993 230.254 713.993 230.254 C 713.989 230.254 673.931 230.254 673.931 230.254 C 673.936 230.248 727.348 171.214 727.348 171.214 C 727.343 171.214 676.039 172.620 676.039 172.620 C 676.049 172.610 776.547 76.329 776.547 76.329 C 776.536 76.330 666.903 82.656 666.902 82.655 Z"/>
<path fill="none" stroke="#ffbf00" stroke-width="1" stroke-linecap="butt" stroke-linejoin="round" d="M 587.068 248.455 C 600.316 235.364 628.241 207.767 628.245 207.763 "/>
<path fill="none" stroke="#ffbf00" stroke-width="1" stroke-linecap="butt" stroke-linejoin="round" d="M 628.245 207.763 C 628.245 207.763 571.319 215.494 571.314 215.495 "/>
<path id="S2" fill="#ffbf00" fill-rule="evenodd" stroke="none" d="M 571.314 215.495 C 576.565 226.481 587.068 248.454 587.068 248.455 C 600.316 235.364 628.241 207.767 628.245 207.763 C 628.245 207.763 571.319 215.494 571.314 215.495 Z"/>
<path fill="none" stroke="#ffbf00" stroke-width="1" stroke-linecap="butt" stroke-linejoin="round" d="M 580.181 289.972 C 595.452 277.842 622.618 256.264 622.622 256.260 "/>
<path fill="none" stroke="#ffbf00" stroke-width="1" stroke-linecap="butt" stroke-linejoin="round" d="M 622.622 256.260 C 622.622 256.260 568.507 266.801 568.502 266.802 "/>
<path id="S3" fill="#ffbf00" fill-rule="evenodd" stroke="none" d="M 568.502 266.802 C 572.395 274.526 580.181 289.971 580.181 289.972 C 595.452 277.842 622.618 256.264 622.622 256.260 C 622.622 256.260 568.507 266.801 568.502 266.802 Z"/>
<path fill="none" stroke="#ffbf00" stroke-width="1" stroke-linecap="butt" stroke-linejoin="round" d="M 568.594 370.382 C 582.510 352.819 609.264 320.225 609.268 320.220 "/>
<path fill="none" stroke="#ffbf00" stroke-width="1" stroke-linecap="butt" stroke-linejoin="round" d="M 609.268 320.220 C 609.268 320.220 523.528 334.978 523.520 334.980 "/>
<path id="S4" fill="#ffbf00" fill-rule="evenodd" stroke="none" d="M 541.145 373.996 C 541.148 373.996 568.594 370.382 568.594 370.382 C 582.510 352.819 609.264 320.225 609.268 320.220 C 609.268 320.220 523.528 334.978 523.520 334.980 C 529.395 347.985 541.143 373.992 541.145 373.996 Z"/>
<path fill="none" stroke="#ffbf00" stroke-width="1" stroke-linecap="butt" stroke-linejoin="round" d="M 774.439 282.265 C 774.439 282.265 375.960 621.008 375.920 621.042 "/>
<path id="S5" fill="#ffbf00" fill-rule="evenodd" stroke="none" d="M 793.894 320.786 C 793.892 320.782 774.439 282.265 774.439 282.265 C 774.439 282.265 375.960 621.008 375.920 621.042 C 381.110 634.028 391.490 659.997 391.492 660.001 C 391.532 659.967 793.894 320.786 793.894 320.786 Z"/>
<path fill="none" stroke="#ffbf00" stroke-width="1" stroke-linecap="butt" stroke-linejoin="round" d="M 716.809 284.387 C 686.462 285.504 659.874 286.483 659.874 286.483 "/>
<path fill="none" stroke="#ffbf00" stroke-width="1" stroke-linecap="butt" stroke-linejoin="round" d="M 659.874 286.483 C 659.879 286.477 713.993 230.254 713.993 230.254 "/>
<path fill="none" stroke="#ffbf00" stroke-width="1" stroke-linecap="butt" stroke-linejoin="round" d="M 713.993 230.254 C 713.989 230.254 673.931 230.254 673.931 230.254 "/>
<path fill="none" stroke="#ffbf00" stroke-width="1" stroke-linecap="butt" stroke-linejoin="round" d="M 673.931 230.254 C 673.936 230.248 727.348 171.214 727.348 171.214 "/>
<path fill="none" stroke="#ffbf00" stroke-width="1" stroke-linecap="butt" stroke-linejoin="round" d="M 727.348 171.214 C 727.343 171.214 676.039 172.620 676.039 172.620 "/>
<path fill="none" stroke="#ffbf00" stroke-width="1" stroke-linecap="butt" stroke-linejoin="round" d="M 676.039 172.620 C 676.049 172.610 776.547 76.329 776.547 76.329 "/>
<path id="S6" fill="#ffbf00" fill-rule="evenodd" stroke="none" d="M 731.755 269.046 C 731.754 269.048 716.809 284.387 716.809 284.387 C 686.462 285.504 659.874 286.483 659.874 286.483 C 659.879 286.477 713.993 230.254 713.993 230.254 C 713.989 230.254 673.931 230.254 673.931 230.254 C 673.936 230.248 727.348 171.214 727.348 171.214 C 727.343 171.214 676.039 172.620 676.039 172.620 C 676.049 172.610 776.547 76.329 776.547 76.329 C 782.873 89.918 795.522 117.091 795.524 117.095 C 795.517 117.101 728.648 179.506 728.648 179.506 C 728.650 179.509 741.924 211.706 741.924 211.706 C 741.922 211.709 718.763 237.975 718.763 237.975 C 718.764 237.979 731.755 269.046 731.755 269.046 Z"/>
</g>
<g id="Layer_5">
<path id="S1" fill="none" stroke="#000000" stroke-width="15" stroke-linejoin="round" d="M 1008.425 208.356 C 1008.288 210.286 1008.012 214.147 1008.012 214.147 M 1008.839 187.673 C 1007.765 164.327 1005.616 117.636 1005.616 117.634 M 955.477 160.785 C 955.477 160.785 947.618 161.613 947.618 161.612 C 947.616 161.615 929.831 177.331 929.831 177.331 C 929.831 177.333 930.244 195.119 930.244 195.119 C 930.245 195.121 944.722 216.629 944.722 216.629 C 944.724 216.630 971.273 223.067 971.273 223.067 C 971.274 223.064 977.815 193.051 977.815 193.051 C 977.815 193.049 977.401 172.368 977.401 172.368 C 977.399 172.367 955.477 160.785 955.477 160.785 M 899.134 144.927 C 899.134 144.931 897.101 173.944 896.545 189.329 C 895.671 213.502 895.911 234.969 895.911 234.969 M 855.372 190.155 C 861.987 190.157 875.215 190.162 875.217 190.162 C 875.219 190.162 896.545 189.329 896.545 189.329 M 851.235 161.199 C 852.614 170.851 855.372 190.155 855.372 190.155 C 855.372 190.158 855.372 219.111 855.372 219.111 M 802.011 184.777 C 809.181 195.670 823.520 217.455 823.521 217.456 M 778.432 135.342 C 778.432 135.342 779.673 188.081 779.673 188.086 C 779.673 188.093 782.568 258.016 782.568 258.016 M 779.673 188.086 C 787.119 186.983 802.011 184.777 802.011 184.777 C 802.013 184.775 825.175 159.544 825.175 159.544 M 742.857 159.958 C 748.373 168.645 759.403 186.018 759.403 186.018 C 759.405 186.019 779.673 188.086 779.673 188.086 C 779.670 188.087 752.785 198.014 752.785 198.014 C 752.783 198.016 739.134 220.352 739.134 220.352 M 721.175 180.227 C 721.172 180.225 691.151 160.785 691.150 160.785 C 691.149 160.787 668.399 170.713 668.399 170.713 C 668.399 170.715 666.744 193.464 666.744 193.464 C 666.746 193.467 684.860 222.240 684.860 222.240 C 684.862 222.238 704.387 208.356 704.387 208.356 C 704.389 208.353 721.175 180.227 721.175 180.227 M 590.650 212.520 C 602.089 213.476 624.962 215.388 624.965 215.388 C 624.967 215.385 643.991 187.675 643.993 187.672 C 643.991 187.670 623.312 164.924 623.310 164.922 C 623.307 164.920 593.608 145.678 593.605 145.676 C 593.604 145.680 587.540 184.367 587.539 184.371 C 587.540 184.374 589.568 202.727 590.650 212.520 C 592.184 226.401 593.527 238.553 593.527 238.553 M 550.507 161.612 C 550.506 161.612 538.510 159.131 538.510 159.131 C 538.509 159.134 517.000 174.850 517.000 174.850 C 517.000 174.853 517.828 201.324 517.828 201.324 C 517.829 201.325 531.478 214.974 531.478 214.974 C 531.481 214.974 559.193 210.424 559.193 210.424 C 559.194 210.422 565.811 182.296 565.811 182.296 C 565.810 182.294 550.507 161.612 550.507 161.612 M 469.554 162.620 C 468.300 188.523 465.793 240.329 465.793 240.331 M 442.128 164.508 C 451.270 163.879 469.551 162.620 469.554 162.620 C 469.557 162.620 495.490 167.404 495.490 167.404 M 418.963 177.331 C 415.930 172.506 409.863 162.854 409.863 162.854 C 409.860 162.854 380.493 169.472 380.493 169.472 C 380.493 169.475 380.493 203.392 380.493 203.392 C 380.495 203.395 398.694 226.463 398.694 226.463 C 398.696 226.461 421.032 204.220 421.032 204.220 M 315.114 162.335 C 315.112 162.337 295.369 180.829 295.369 180.830 C 295.370 180.831 295.693 193.464 295.693 193.464 C 295.696 193.467 318.031 218.284 318.031 218.284 C 318.034 218.282 348.642 198.428 348.642 198.428 C 348.641 198.425 341.492 172.691 341.492 172.691 C 341.489 172.690 315.114 162.335 315.114 162.335 "/>
<path id="S2" fill="none" stroke="#000000" stroke-width="20" stroke-linejoin="round" d="M 872.628 492.044 C 872.231 494.825 871.436 500.385 871.436 500.386 M 872.032 424.118 C 871.833 441.000 871.436 474.763 871.436 474.765 M 828.535 447.951 C 828.534 447.951 815.428 447.952 815.427 447.951 C 815.425 447.954 792.785 461.656 792.785 461.656 C 792.785 461.659 796.359 486.682 796.359 486.682 C 796.361 486.685 807.492 513.082 807.492 513.082 C 807.495 513.080 841.048 493.832 841.048 493.832 C 841.048 493.829 842.240 467.019 842.240 467.019 C 842.239 467.017 828.535 447.951 828.535 447.951 M 744.928 464.285 C 757.362 484.582 782.230 525.174 782.232 525.176 M 719.731 476.611 C 725.413 475.002 736.776 471.785 736.776 471.785 C 736.777 471.785 744.927 464.286 744.928 464.285 C 744.930 464.283 768.550 435.456 768.550 435.456 M 720.688 447.951 C 720.369 457.505 719.731 476.608 719.731 476.611 C 719.731 476.614 724.263 506.345 724.263 506.345 M 687.320 505.749 C 687.718 499.592 688.512 487.280 688.512 487.278 C 688.512 487.274 682.555 446.765 682.554 446.760 C 682.552 446.765 662.297 489.656 662.295 489.661 C 662.294 489.659 652.167 471.191 652.166 471.190 C 652.164 471.187 633.101 447.359 633.099 447.356 C 633.100 447.362 636.674 508.132 636.674 508.132 M 605.691 468.211 C 605.688 468.209 580.069 448.548 580.069 448.547 C 580.068 448.550 559.810 460.464 559.810 460.464 C 559.810 460.467 559.810 483.107 559.810 483.107 C 559.812 483.108 575.303 502.173 575.303 502.173 C 575.305 502.173 599.136 496.215 599.136 496.215 C 599.136 496.213 605.691 468.211 605.691 468.211 M 485.123 494.613 C 496.116 494.551 518.098 494.428 518.101 494.428 C 518.103 494.426 531.805 474.767 531.806 474.765 C 531.804 474.763 510.953 452.125 510.951 452.123 C 510.948 452.122 482.950 448.548 482.947 448.547 C 482.947 448.552 484.400 479.323 485.123 494.613 C 485.902 511.097 486.522 524.220 486.522 524.220 M 459.113 450.931 C 455.141 450.335 447.198 449.143 447.197 449.143 C 447.194 449.144 425.153 452.122 425.150 452.123 C 425.151 452.131 427.533 530.522 427.533 530.522 M 1027.960 307.513 C 1025.409 337.519 1020.305 397.529 1020.305 397.532 M 1004.491 306.159 C 1012.314 306.610 1027.960 307.513 1027.960 307.513 C 1027.963 307.513 1059.102 307.062 1059.102 307.062 M 941.306 331.885 C 942.509 338.805 944.916 352.646 944.916 352.646 C 944.918 352.647 968.385 358.513 968.385 358.513 C 968.386 358.512 982.376 347.230 982.376 347.230 M 937.243 321.053 C 937.244 321.054 941.305 331.885 941.306 331.885 C 941.310 331.882 985.986 334.142 985.986 334.142 C 985.986 334.140 986.438 314.284 986.438 314.284 C 986.435 314.283 955.748 303.903 955.748 303.903 C 955.746 303.905 937.243 321.053 937.243 321.053 M 865.974 356.475 C 865.208 345.570 863.677 323.761 863.677 323.761 C 863.677 323.760 869.995 307.965 869.995 307.965 C 869.998 307.965 901.589 306.611 901.589 306.611 C 901.589 306.612 907.004 316.991 907.004 316.991 C 907.004 316.995 904.640 355.044 904.640 355.044 C 897.275 354.733 879.927 354.000 879.925 354.000 C 879.925 354.000 865.975 356.475 865.974 356.475 C 865.972 356.475 853.749 358.965 853.748 358.965 C 853.748 358.965 857.842 377.242 859.889 386.381 M 904.640 355.044 C 908.884 355.224 911.969 355.354 911.969 355.354 C 911.969 355.357 912.420 387.186 912.420 387.186 M 807.712 346.779 C 806.659 354.151 804.553 368.894 804.553 368.894 C 804.550 368.896 769.208 387.920 769.208 387.920 M 786.049 301.647 C 790.261 313.230 798.686 336.398 798.686 336.398 C 798.687 336.399 807.712 346.779 807.712 346.779 C 807.715 346.774 832.535 293.991 832.535 293.991 M 758.598 273.221 C 743.978 281.643 714.739 298.487 714.739 298.487 C 714.739 298.490 715.211 313.106 715.467 321.048 C 715.800 331.368 716.093 340.461 716.093 340.461 C 716.095 340.462 734.146 359.416 734.146 359.416 C 734.148 359.415 758.067 346.327 758.067 346.327 C 758.066 346.324 751.297 311.575 751.297 311.575 C 751.293 311.576 715.467 321.048 715.467 321.048 M 668.510 315.195 C 659.999 312.183 642.979 306.159 642.979 306.159 C 642.976 306.160 616.351 317.443 616.351 317.443 C 616.351 317.446 620.863 352.646 620.863 352.646 C 620.865 352.647 637.562 358.965 637.562 358.965 C 637.564 358.965 653.811 354.903 653.811 354.903 C 653.811 354.902 659.677 343.620 659.677 343.620 M 547.471 350.553 C 558.997 350.800 582.048 351.292 582.049 351.292 C 582.049 351.293 584.155 357.912 585.208 361.221 M 582.049 351.292 C 582.047 351.284 562.910 263.814 562.908 263.806 C 562.907 263.814 547.472 350.545 547.471 350.553 C 547.471 350.556 544.138 380.416 544.138 380.416 M 511.447 329.937 C 510.786 347.417 509.464 382.375 509.464 382.377 M 470.622 302.338 C 470.622 310.771 470.622 327.637 470.622 327.637 C 470.623 327.638 485.572 337.987 485.572 337.987 C 485.574 337.986 511.447 329.937 511.447 329.937 C 511.447 329.935 512.021 301.763 512.021 301.763 M 405.647 282.787 C 415.613 283.171 435.546 283.938 435.547 283.938 M 392.422 302.338 C 392.613 320.354 392.997 356.387 392.997 356.387 C 392.999 356.384 415.997 323.037 415.997 323.037 C 416.000 323.035 440.722 301.188 440.722 301.188 C 440.722 301.193 439.572 356.387 439.572 356.387 M 325.147 332.237 C 328.214 340.479 334.347 356.962 334.347 356.962 C 334.349 356.962 355.622 356.387 355.622 356.387 C 355.623 356.386 364.247 348.338 364.247 348.338 M 321.122 312.112 C 321.122 312.114 325.148 332.238 325.147 332.237 C 325.151 332.234 367.122 330.513 367.122 330.513 C 367.121 330.510 355.047 304.063 355.047 304.063 C 355.044 304.064 321.122 312.112 321.122 312.112 M 294.672 320.163 C 289.880 314.988 280.297 304.637 280.297 304.637 C 280.294 304.638 249.247 315.563 249.247 315.563 C 249.248 315.567 258.448 352.362 258.448 352.362 C 258.450 352.366 278.670 383.784 278.670 383.784 C 278.672 383.780 292.947 343.162 292.947 343.162 "/>
</g>
</svg>
